<svg
    xmlns="http://www.w3.org/2000/svg"
    viewBox="0 0 256 256"
>
    <path d="m77 143.4a15.9 15.9 0 1 0 31.8 0 15.9 15.9 0 1 0 -31.8 0z" />
    <path d="m246 130.5c0-19.7-15.5-35.6-34.5-35.6-6.7 0-12.9 2-18.1 5.4-16.4-9.5-37-15.4-59.5-16.2l13-37.3 26.9 6.5c-.1.9-.3 1.7-.3 2.6 0 14.8 12.1 26.9 26.9 26.9s26.9-12.1 26.9-26.9-12.1-26.9-26.9-26.9c-9.7 0-18.1 5.2-22.8 12.8l-38.5-9.2-18 51.5c-22.4 1.2-42.8 7.4-58.9 17.2.3-.2.6-.5.9-.7-5.4-3.6-11.8-5.7-18.7-5.7-19 0-34.5 16-34.5 35.6 0 13.1 7 24.5 17.3 30.7 4.2 36.7 48 65.7 101.3 65.7 53.7 0 97.7-29.4 101.4-66.5 9.7-6.2 16.1-17.3 16.1-29.9zm-45.6-89.5c8.2 0 14.9 6.7 14.9 14.9s-6.7 14.9-14.9 14.9c-8.3 0-14.9-6.7-14.9-14.9-.1-8.2 6.6-14.9 14.9-14.9zm-155.9 65.9c2.7 0 5.3.6 7.7 1.5-13 10.4-21.8 23.5-24.4 38-3.6-4.2-5.8-9.7-5.8-15.8-.1-13.1 10.1-23.7 22.5-23.7zm84.1 108.1c-49.5 0-89.8-26.7-89.8-59.6 0-32.8 40.3-59.6 89.8-59.6s89.8 26.7 89.8 59.6-40.3 59.6-89.8 59.6zm100.6-69.9c-2.9-14.1-11.7-26.8-24.5-37 2.2-.7 4.4-1.2 6.8-1.2 12.4 0 22.5 10.6 22.5 23.7 0 5.4-1.8 10.4-4.8 14.5z" />
    <path d="m145.3 143.4a15.9 15.9 0 1 0 31.8 0 15.9 15.9 0 1 0 -31.8 0z" />
    <path d="m158.7 178.8c-33.7 22.2-60.9 1.2-62.1.3-2.6-2.1-6.3-1.7-8.4.9s-1.7 6.3.9 8.4c.2.2 15.7 12.4 38.3 12.4 11.2 0 24.2-3 37.9-12.1 2.8-1.8 3.5-5.5 1.7-8.3-1.9-2.7-5.6-3.5-8.3-1.6z" />
</svg>
